<svg xmlns="http://www.w3.org/2000/svg" version="1.1" xmlns:xlink="http://www.w3.org/1999/xlink" xmlns:svgjs="http://svgjs.dev/svgjs" width="2000" height="1191" viewBox="0 0 2000 1191"><g transform="matrix(1,0,0,1,-1.2121212121212466,-0.5341065785631827)"><svg viewBox="0 0 396 236" data-background-color="#ffffff" preserveAspectRatio="xMidYMid meet" height="1191" width="2000" xmlns="http://www.w3.org/2000/svg" xmlns:xlink="http://www.w3.org/1999/xlink"><g id="tight-bounds" transform="matrix(1,0,0,1,0.2400000000000091,0.10583472085718881)"><svg viewBox="0 0 395.52 235.78833055828562" height="235.78833055828562" width="395.52"><g><svg viewBox="0 0 395.52 235.78833055828562" height="235.78833055828562" width="395.52"><g transform="matrix(1,0,0,1,0,141.74263894634947)"><svg viewBox="0 0 395.52 94.04569161193614" height="94.04569161193614" width="395.52"><g id="textblocktransform"><svg viewBox="0 0 395.52 94.04569161193614" height="94.04569161193614" width="395.52" id="textblock"><g><svg viewBox="0 0 395.52 49.863150589868134" height="49.863150589868134" width="395.52"><g transform="matrix(1,0,0,1,0,0)"><svg width="395.52" viewBox="2.85 -41.5 432.27 54.5" height="49.863150589868134" data-palette-color="#1f55b3"><path d="M23.65-39L23.65-39Q28.05-39 31.85-37.45 35.65-35.9 38.45-33.2 41.25-30.5 42.85-26.85 44.45-23.2 44.45-18.95L44.45-18.95Q44.45-14.9 42.83-11.35 41.2-7.8 38.4-5.18 35.6-2.55 31.8-1.03 28 0.5 23.65 0.5L23.65 0.5Q19.3 0.5 15.5-1.03 11.7-2.55 8.9-5.18 6.1-7.8 4.48-11.35 2.85-14.9 2.85-18.95L2.85-18.95Q2.85-23.2 4.45-26.85 6.05-30.5 8.85-33.2 11.65-35.9 15.45-37.45 19.25-39 23.65-39ZM23.65-2.25L23.65-2.25Q26.95-2.25 29.58-3.4 32.2-4.55 34.08-6.7 35.95-8.85 36.95-11.93 37.95-15 37.95-18.8L37.95-18.8Q37.95-22.8 36.95-26.03 35.95-29.25 34.1-31.53 32.25-33.8 29.6-35.02 26.95-36.25 23.65-36.25L23.65-36.25Q20.35-36.25 17.7-35.02 15.05-33.8 13.2-31.53 11.35-29.25 10.35-26.03 9.35-22.8 9.35-18.8L9.35-18.8Q9.35-15 10.35-11.93 11.35-8.85 13.2-6.7 15.05-4.55 17.7-3.4 20.35-2.25 23.65-2.25ZM70.45-13.6L70.45-18.5Q70.45-20.55 70.35-21.73 70.25-22.9 69.82-23.53 69.4-24.15 68.57-24.38 67.75-24.6 66.3-24.75L66.3-24.75 66.3-26.5 75.35-26.5 75.35-11.15Q75.35-8.3 75.42-6.5 75.5-4.7 75.65-3.8L75.65-3.8Q75.75-3.15 75.97-2.78 76.2-2.4 76.65-2.18 77.1-1.95 77.82-1.88 78.55-1.8 79.7-1.8L79.7-1.8 79.7-0.05 71.45 0.55 70.9-5.45 70.7-5.45Q68.8-2.35 66.32-0.93 63.85 0.5 61.15 0.5L61.15 0.5Q59.05 0.5 57.07-0.3 55.1-1.1 54.1-2.45L54.1-2.45Q53.25-3.55 52.87-5.5 52.5-7.45 52.5-10.55L52.5-10.55 52.5-18.5Q52.5-20.55 52.4-21.73 52.3-22.9 51.87-23.53 51.45-24.15 50.62-24.38 49.8-24.6 48.35-24.75L48.35-24.75 48.35-26.5 57.4-26.5 57.4-12.85Q57.4-7.4 58.67-4.95 59.95-2.5 62.75-2.5L62.75-2.5Q67.15-2.5 69.6-8.25L69.6-8.25Q69.85-8.85 70-9.35 70.15-9.85 70.25-10.45 70.35-11.05 70.4-11.8 70.45-12.55 70.45-13.6L70.45-13.6ZM85.8-23.35L82.8-23.35 82.8-25.2Q85.45-26.75 86.95-28.3 88.45-29.85 89.25-32L89.25-32 90.7-32 90.7-25.7 97.4-25.7 97.4-23.35 90.7-23.35 90.7-8.15Q90.7-6.4 90.87-5.2 91.05-4 91.45-3.28 91.85-2.55 92.5-2.25 93.15-1.95 94.15-1.95L94.15-1.95Q95.4-1.95 96.27-2.48 97.15-3 98-4.25L98-4.25 99.25-3.3Q98.55-1.45 96.82-0.48 95.1 0.5 92.55 0.5L92.55 0.5Q89.25 0.5 87.52-1.07 85.8-2.65 85.8-5.6L85.8-5.6 85.8-23.35ZM137.69-39L137.69-39Q142.09-39 145.89-37.45 149.69-35.9 152.49-33.2 155.29-30.5 156.89-26.85 158.49-23.2 158.49-18.95L158.49-18.95Q158.49-14.9 156.87-11.35 155.24-7.8 152.44-5.18 149.64-2.55 145.84-1.03 142.04 0.5 137.69 0.5L137.69 0.5Q133.34 0.5 129.54-1.03 125.74-2.55 122.94-5.18 120.14-7.8 118.52-11.35 116.89-14.9 116.89-18.95L116.89-18.95Q116.89-23.2 118.49-26.85 120.09-30.5 122.89-33.2 125.69-35.9 129.49-37.45 133.29-39 137.69-39ZM137.69-2.25L137.69-2.25Q140.99-2.25 143.62-3.4 146.24-4.55 148.12-6.7 149.99-8.85 150.99-11.93 151.99-15 151.99-18.8L151.99-18.8Q151.99-22.8 150.99-26.03 149.99-29.25 148.14-31.53 146.29-33.8 143.64-35.02 140.99-36.25 137.69-36.25L137.69-36.25Q134.39-36.25 131.74-35.02 129.09-33.8 127.24-31.53 125.39-29.25 124.39-26.03 123.39-22.8 123.39-18.8L123.39-18.8Q123.39-15 124.39-11.93 125.39-8.85 127.24-6.7 129.09-4.55 131.74-3.4 134.39-2.25 137.69-2.25ZM162.44-23.35L162.44-25.7 168.09-25.7 168.09-29.3Q168.09-35.05 171.11-38.27 174.14-41.5 179.74-41.5L179.74-41.5Q182.84-41.5 184.79-40.55 186.74-39.6 186.74-38.1L186.74-38.1Q186.74-37.1 186.11-36.43 185.49-35.75 184.54-35.75L184.54-35.75Q183.94-35.75 183.26-36.13 182.59-36.5 181.49-37.4L181.49-37.4Q180.24-38.45 179.54-38.78 178.84-39.1 177.89-39.1L177.89-39.1Q174.89-39.1 173.59-36.05L173.59-36.05Q173.14-35.05 172.96-33.6 172.79-32.15 172.79-29.6L172.79-29.6 172.79-25.7 180.84-25.7 180.84-23.35 172.79-23.35 172.79-8.05Q172.79-6.2 173.01-5 173.24-3.8 173.81-3.08 174.39-2.35 175.39-2.08 176.39-1.8 177.99-1.75L177.99-1.75 177.99 0 163.79 0 163.79-1.75Q165.19-1.8 166.04-2.02 166.89-2.25 167.34-2.88 167.79-3.5 167.94-4.63 168.09-5.75 168.09-7.65L168.09-7.65 168.09-23.35 162.44-23.35ZM219.93-39L219.93-39Q224.33-39 228.13-37.45 231.93-35.9 234.73-33.2 237.53-30.5 239.13-26.85 240.73-23.2 240.73-18.95L240.73-18.95Q240.73-14.9 239.11-11.35 237.48-7.8 234.68-5.18 231.88-2.55 228.08-1.03 224.28 0.5 219.93 0.5L219.93 0.5Q215.58 0.5 211.78-1.03 207.98-2.55 205.18-5.18 202.38-7.8 200.76-11.35 199.13-14.9 199.13-18.95L199.13-18.95Q199.13-23.2 200.73-26.85 202.33-30.5 205.13-33.2 207.93-35.9 211.73-37.45 215.53-39 219.93-39ZM219.93-2.25L219.93-2.25Q223.23-2.25 225.86-3.4 228.48-4.55 230.36-6.7 232.23-8.85 233.23-11.93 234.23-15 234.23-18.8L234.23-18.8Q234.23-22.8 233.23-26.03 232.23-29.25 230.38-31.53 228.53-33.8 225.88-35.02 223.23-36.25 219.93-36.25L219.93-36.25Q216.63-36.25 213.98-35.02 211.33-33.8 209.48-31.53 207.63-29.25 206.63-26.03 205.63-22.8 205.63-18.8L205.63-18.8Q205.63-15 206.63-11.93 207.63-8.85 209.48-6.7 211.33-4.55 213.98-3.4 216.63-2.25 219.93-2.25ZM254.68-9.65L254.68-7.95Q254.68-5.9 254.78-4.7 254.88-3.5 255.31-2.88 255.73-2.25 256.53-2.05 257.33-1.85 258.78-1.75L258.78-1.75 258.78 0 245.48 0 245.48-1.75Q246.93-1.8 247.78-2.02 248.63-2.25 249.08-2.85 249.53-3.45 249.66-4.58 249.78-5.7 249.78-7.6L249.78-7.6 249.78-13.45Q249.78-16.85 249.71-18.75 249.63-20.65 249.21-21.55 248.78-22.45 247.88-22.63 246.98-22.8 245.38-22.8L245.38-22.8 245.38-24.55 254.13-26.45 254.83-20.25 255.03-20.25Q255.68-21.75 256.66-23 257.63-24.25 258.78-25.13 259.93-26 261.18-26.5 262.43-27 263.73-27L263.73-27Q265.33-27 266.26-26.23 267.18-25.45 267.18-24.15L267.18-24.15Q267.18-22.95 266.43-22.28 265.68-21.6 264.28-21.6L264.28-21.6Q263.48-21.6 262.93-21.8 262.38-22 261.96-22.23 261.53-22.45 261.16-22.65 260.78-22.85 260.33-22.85L260.33-22.85Q258.98-22.85 257.63-21.13 256.28-19.4 255.53-16.75L255.53-16.75Q255.13-15.3 254.91-13.48 254.68-11.65 254.68-9.65L254.68-9.65ZM291.13 0.5L291.13-4.2 290.93-4.2Q289.13-1.65 287.1-0.58 285.08 0.5 282.33 0.5L282.33 0.5Q279.48 0.5 277.1-0.53 274.73-1.55 273-3.38 271.28-5.2 270.3-7.75 269.33-10.3 269.33-13.3L269.33-13.3Q269.33-16.25 270.3-18.78 271.28-21.3 273-23.13 274.73-24.95 277.13-25.98 279.53-27 282.33-27L282.33-27Q284.73-27 286.6-26.2 288.48-25.4 290.23-23.65L290.23-23.65 290.23-28.75Q290.23-31.6 290.15-33.5 290.08-35.4 289.93-36.1L289.93-36.1Q289.68-37.2 288.53-37.65 287.38-38.1 284.78-38.1L284.78-38.1 284.78-39.6 295.03-41.5 295.03-12.65Q295.03-9.2 295.08-6.98 295.13-4.75 295.38-3.8L295.38-3.8Q295.53-3.2 295.75-2.8 295.98-2.4 296.4-2.18 296.83-1.95 297.55-1.85 298.28-1.75 299.43-1.75L299.43-1.75 299.43-0.05 291.13 0.5ZM290.13-11.95L290.13-15.25Q290.13-17.85 289.85-19.2 289.58-20.55 288.78-21.55L288.78-21.55Q287.63-23.05 285.85-23.83 284.08-24.6 282.33-24.6L282.33-24.6Q278.73-24.6 276.85-21.63 274.98-18.65 274.98-13.55L274.98-13.55Q274.98-10.9 275.45-8.75 275.93-6.6 276.85-5.08 277.78-3.55 279.15-2.73 280.53-1.9 282.33-1.9L282.33-1.9Q283.23-1.9 284.15-2.1 285.08-2.3 285.95-2.73 286.83-3.15 287.58-3.73 288.33-4.3 288.83-5.05L288.83-5.05Q289.53-6.15 289.83-7.7 290.13-9.25 290.13-11.95L290.13-11.95ZM312.08-27L312.08-7.95Q312.08-6 312.25-4.83 312.43-3.65 312.93-2.98 313.43-2.3 314.33-2.05 315.23-1.8 316.73-1.75L316.73-1.75 316.73 0 302.38 0 302.38-1.75Q303.88-1.8 304.83-2.08 305.78-2.35 306.3-2.98 306.83-3.6 307-4.73 307.18-5.85 307.18-7.6L307.18-7.6 307.18-14Q307.18-16.9 307.1-18.78 307.03-20.65 306.83-21.35L306.83-21.35Q306.58-22.5 305.68-22.93 304.78-23.35 302.28-23.35L302.28-23.35 302.28-25.1 312.08-27ZM306.33-37.15L306.33-37.15Q306.33-38.45 307.23-39.35 308.13-40.25 309.43-40.25L309.43-40.25Q310.73-40.25 311.63-39.35 312.53-38.45 312.53-37.15L312.53-37.15Q312.53-35.85 311.63-34.95 310.73-34.05 309.43-34.05L309.43-34.05Q308.13-34.05 307.23-34.95 306.33-35.85 306.33-37.15ZM328.52-14.55L328.52-7.85Q328.52-5.8 328.62-4.63 328.72-3.45 329.15-2.83 329.57-2.2 330.4-2 331.22-1.8 332.67-1.7L332.67-1.7 332.67 0 319.57 0 319.57-1.7Q320.97-1.8 321.8-2 322.62-2.2 323.07-2.8 323.52-3.4 323.65-4.5 323.77-5.6 323.77-7.5L323.77-7.5 323.77-14.15Q323.77-20.1 323.47-21.4L323.47-21.4Q323.32-22.05 323.1-22.48 322.87-22.9 322.42-23.13 321.97-23.35 321.27-23.43 320.57-23.5 319.47-23.5L319.47-23.5 319.47-25.1 327.47-27 328.07-22.05 328.27-22.05Q330.17-24.4 332.72-25.7 335.27-27 338.27-27L338.27-27Q340.57-27 342.47-26.25 344.37-25.5 345.37-24.2L345.37-24.2Q346.22-23.05 346.57-21.23 346.92-19.4 346.92-16.2L346.92-16.2 346.92-7.85Q346.92-5.8 347.05-4.63 347.17-3.45 347.57-2.83 347.97-2.2 348.8-2 349.62-1.8 350.97-1.7L350.97-1.7 350.97 0 338.02 0 338.02-1.7Q339.42-1.75 340.25-1.98 341.07-2.2 341.5-2.8 341.92-3.4 342.05-4.53 342.17-5.65 342.17-7.5L342.17-7.5 342.17-14.1Q342.17-16.95 341.87-18.9 341.57-20.85 340.9-22.05 340.22-23.25 339.12-23.78 338.02-24.3 336.47-24.3L336.47-24.3Q334.22-24.3 332.35-23.13 330.47-21.95 329.42-19.9L329.42-19.9Q329.17-19.4 329-18.95 328.82-18.5 328.72-17.9 328.62-17.3 328.57-16.53 328.52-15.75 328.52-14.55L328.52-14.55ZM369.62-10.85L369.62-14.8Q366.77-13.7 364.8-12.65 362.82-11.6 361.62-10.55 360.42-9.5 359.9-8.45 359.37-7.4 359.37-6.3L359.37-6.3Q359.37-4.65 360.47-3.6 361.57-2.55 363.37-2.55L363.37-2.55Q364.67-2.55 365.8-3.2 366.92-3.85 367.77-4.98 368.62-6.1 369.12-7.63 369.62-9.15 369.62-10.85L369.62-10.85ZM362.42-13.8L369.62-16.95 369.62-19Q369.62-25.1 364.42-25.1L364.42-25.1Q363.57-25.1 362.97-24.95 362.37-24.8 361.97-24.45 361.57-24.1 361.25-23.45 360.92-22.8 360.62-21.85L360.62-21.85Q360.07-20.4 359.55-19.93 359.02-19.45 358.02-19.45L358.02-19.45Q355.52-19.45 355.52-21.95L355.52-21.95Q355.52-24.35 358.07-25.68 360.62-27 365.32-27L365.32-27Q370.32-27 372.42-25.23 374.52-23.45 374.52-19.2L374.52-19.2 374.52-8Q374.52-2.3 376.77-2.3L376.77-2.3Q377.47-2.3 378.12-2.48 378.77-2.65 379.22-3.4L379.22-3.4 379.92-2.2Q379.32-1.05 377.72-0.28 376.12 0.5 374.37 0.5L374.37 0.5Q372.17 0.5 371.1-0.9 370.02-2.3 370.02-4.85L370.02-4.85 369.77-4.85Q368.47-2.4 366.17-0.98 363.87 0.45 361.07 0.45L361.07 0.45Q357.92 0.45 356.12-1.15 354.32-2.75 354.32-5.45L354.32-5.45Q354.32-6.65 354.75-7.75 355.17-8.85 356.12-9.85 357.07-10.85 358.62-11.83 360.17-12.8 362.42-13.8L362.42-13.8ZM390.97-9.65L390.97-7.95Q390.97-5.9 391.07-4.7 391.17-3.5 391.59-2.88 392.02-2.25 392.82-2.05 393.62-1.85 395.07-1.75L395.07-1.75 395.07 0 381.77 0 381.77-1.75Q383.22-1.8 384.07-2.02 384.92-2.25 385.37-2.85 385.82-3.45 385.94-4.58 386.07-5.7 386.07-7.6L386.07-7.6 386.07-13.45Q386.07-16.85 385.99-18.75 385.92-20.65 385.49-21.55 385.07-22.45 384.17-22.63 383.27-22.8 381.67-22.8L381.67-22.8 381.67-24.55 390.42-26.45 391.12-20.25 391.32-20.25Q391.97-21.75 392.94-23 393.92-24.25 395.07-25.13 396.22-26 397.47-26.5 398.72-27 400.02-27L400.02-27Q401.62-27 402.54-26.23 403.47-25.45 403.47-24.15L403.47-24.15Q403.47-22.95 402.72-22.28 401.97-21.6 400.57-21.6L400.57-21.6Q399.77-21.6 399.22-21.8 398.67-22 398.24-22.23 397.82-22.45 397.44-22.65 397.07-22.85 396.62-22.85L396.62-22.85Q395.27-22.85 393.92-21.13 392.57-19.4 391.82-16.75L391.82-16.75Q391.42-15.3 391.19-13.48 390.97-11.65 390.97-9.65L390.97-9.65ZM428.67-16.4L417.77 7.85Q415.47 13 410.62 13L410.62 13Q407.47 13 407.47 10.65L407.47 10.65Q407.47 9.4 408.34 8.83 409.22 8.25 411.57 7.85L411.57 7.85Q412.62 7.7 413.37 7.43 414.12 7.15 414.72 6.73 415.32 6.3 415.79 5.65 416.27 5 416.72 4.05L416.72 4.05 418.47 0.55 408.87-20.3Q408.22-21.7 407.74-22.53 407.27-23.35 406.74-23.83 406.22-24.3 405.57-24.48 404.92-24.65 403.92-24.75L403.92-24.75 403.92-26.5 417.17-26.5 417.17-24.75Q413.82-24.75 413.82-23.1L413.82-23.1Q413.82-22.45 414.22-21.05 414.62-19.65 415.22-18.2L415.22-18.2 420.72-4.9 420.97-4.9 425.52-16.15Q426.17-17.8 426.59-18.85 427.02-19.9 427.24-20.58 427.47-21.25 427.54-21.7 427.62-22.15 427.62-22.55L427.62-22.55Q427.62-23.85 426.89-24.3 426.17-24.75 424.12-24.75L424.12-24.75 424.12-26.5 435.12-26.5 435.12-24.75Q434.17-24.75 433.52-24.5 432.87-24.25 432.19-23.38 431.52-22.5 430.69-20.85 429.87-19.2 428.67-16.4L428.67-16.4Z" opacity="1" transform="matrix(1,0,0,1,0,0)" fill="#000000" class="wordmark-text-0" data-fill-palette-color="primary" id="text-0"></path></svg></g></svg></g><g transform="matrix(1,0,0,1,120.85464681230228,61.634643728521844)"><svg viewBox="0 0 153.81070637539543 32.41104788341429" height="32.41104788341429" width="153.81070637539543"><g transform="matrix(1,0,0,1,0,0)"><svg width="153.81070637539543" viewBox="0.9 -36.65 176.28 37.15" height="32.41104788341429" data-palette-color="#ff585f"><path d="M12.35-36.65Q14.3-36.65 15.75-35.77 17.2-34.9 17.2-33.7L17.2-33.7Q17.2-32.95 16.65-32.43 16.1-31.9 15.35-31.9L15.35-31.9Q14.55-31.9 14.08-32.4 13.6-32.9 13.4-33.95L13.4-33.95Q13.1-35.2 12.73-35.6 12.35-36 11.5-36L11.5-36Q9.25-36 8.2-33.4L8.2-33.4Q7.8-32.35 7.65-30.98 7.5-29.6 7.5-26.85L7.5-26.85 7.5-21.2 12.15-21.2 11.9-20.4 7.5-20.4 7.5-0.9 11.85-0.4 11.85 0 1.2 0 1.2-0.4 4.25-0.8 4.25-20.4 0.9-20.4 1.15-21.2 4.25-21.2 4.25-24.1Q4.25-27.75 4.38-29.2 4.5-30.65 4.85-31.6L4.85-31.6Q5.7-33.8 7.8-35.23 9.9-36.65 12.35-36.65L12.35-36.65ZM25.8-21.7Q26.8-21.7 27.5-21.03 28.2-20.35 28.2-19.4L28.2-19.4Q28.2-18.6 27.65-18.05 27.1-17.5 26.3-17.5L26.3-17.5Q25.8-17.5 25.47-17.73 25.15-17.95 24.8-18.4L24.8-18.4Q24.45-18.8 24.17-19 23.9-19.2 23.5-19.2L23.5-19.2Q22.7-19.2 21.87-18.25 21.05-17.3 20.7-16.05L20.7-16.05 20.7-0.8 24.7-0.4 24.7 0 14.4 0 14.4-0.4 17.45-0.8 17.45-18.3 14.5-19.4 14.5-19.75 20.15-21.7 20.55-21.7 20.55-17.3Q23.35-21.7 25.8-21.7L25.8-21.7ZM46.8-5.1L47.24-5.7 47.45-5.6 47.24-5.05Q46.24-2.4 44.27-0.95 42.3 0.5 39.55 0.5L39.55 0.5Q36.84 0.5 34.74-0.9 32.64-2.3 31.47-4.8 30.29-7.3 30.29-10.55L30.29-10.55Q30.29-13.8 31.54-16.35 32.8-18.9 35.09-20.3 37.39-21.7 40.34-21.7L40.34-21.7Q43.84-21.7 45.72-19.63 47.59-17.55 47.64-13.6L47.64-13.6 47.34-13.35 33.84-13.35Q33.74-12.05 33.74-11.3L33.74-11.3Q33.74-6.75 35.59-4.38 37.45-2 40.74-2L40.74-2Q42.45-2 44.02-2.78 45.59-3.55 46.8-5.1L46.8-5.1ZM39.8-21.15Q37.45-21.15 35.89-19.2 34.34-17.25 33.89-13.9L33.89-13.9 43.59-14.25Q43.74-14.85 43.74-16.25L43.74-16.25Q43.74-18.95 42.72-20.05 41.7-21.15 39.8-21.15L39.8-21.15ZM67.94-5.1L68.39-5.7 68.59-5.6 68.39-5.05Q67.39-2.4 65.42-0.95 63.44 0.5 60.69 0.5L60.69 0.5Q57.99 0.5 55.89-0.9 53.79-2.3 52.62-4.8 51.44-7.3 51.44-10.55L51.44-10.55Q51.44-13.8 52.69-16.35 53.94-18.9 56.24-20.3 58.54-21.7 61.49-21.7L61.49-21.7Q64.99-21.7 66.87-19.63 68.74-17.55 68.79-13.6L68.79-13.6 68.49-13.35 54.99-13.35Q54.89-12.05 54.89-11.3L54.89-11.3Q54.89-6.75 56.74-4.38 58.59-2 61.89-2L61.89-2Q63.59-2 65.17-2.78 66.74-3.55 67.94-5.1L67.94-5.1ZM60.94-21.15Q58.59-21.15 57.04-19.2 55.49-17.25 55.04-13.9L55.04-13.9 64.74-14.25Q64.89-14.85 64.89-16.25L64.89-16.25Q64.89-18.95 63.87-20.05 62.84-21.15 60.94-21.15L60.94-21.15ZM89.29-26L83.79-20.7 83.89-20.45 86.24-20.45 86.24-4.45Q86.24-2.9 86.59-1.95 86.94-1 87.79-0.4L87.79-0.4Q89.04 0.5 90.64 0.5L90.64 0.5Q92.19 0.5 93.56-0.4 94.94-1.3 95.69-2.85L95.69-2.85 95.49-3Q94.59-2.1 93.84-1.7 93.09-1.3 92.29-1.3L92.29-1.3Q90.64-1.3 90.04-2.5L90.04-2.5Q89.49-3.35 89.49-5.1L89.49-5.1 89.49-20.4 94.89-20.4 95.19-21.2 89.49-21.2 89.49-25.95 89.29-26ZM107.89-21.7Q110.79-21.7 113.04-20.3 115.29-18.9 116.54-16.38 117.79-13.85 117.79-10.6L117.79-10.6Q117.79-7.35 116.54-4.83 115.29-2.3 113.04-0.9 110.79 0.5 107.89 0.5L107.89 0.5Q104.99 0.5 102.74-0.9 100.49-2.3 99.24-4.83 97.99-7.35 97.99-10.6L97.99-10.6Q97.99-13.85 99.24-16.38 100.49-18.9 102.74-20.3 104.99-21.7 107.89-21.7L107.89-21.7ZM101.69-10.6Q101.69-5.6 103.34-2.8 104.99 0 107.89 0L107.89 0Q110.79 0 112.44-2.8 114.09-5.6 114.09-10.6L114.09-10.6Q114.09-15.6 112.44-18.4 110.79-21.2 107.89-21.2L107.89-21.2Q104.99-21.2 103.34-18.4 101.69-15.6 101.69-10.6L101.69-10.6ZM142.08 0.5Q143.98 0.5 145.61-0.45 147.23-1.4 148.38-3.2L148.38-3.2 148.53-3.15 148.53 0.25 148.83 0.25 154.28-2.25 154.28-2.5 151.53-3.1 151.53-36.05 151.13-36.05 145.33-34.1 145.33-33.75 148.28-32.65 148.28-21.1Q146.33-21.7 144.38-21.7L144.38-21.7Q141.28-21.7 138.86-20.25 136.43-18.8 135.11-16.18 133.78-13.55 133.78-10.2L133.78-10.2Q133.78-7.15 134.86-4.73 135.93-2.3 137.83-0.9 139.73 0.5 142.08 0.5L142.08 0.5ZM143.83-1.5Q140.78-1.5 139.06-4.03 137.33-6.55 137.33-10.9L137.33-10.9Q137.33-15.55 139.26-18.38 141.18-21.2 144.33-21.2L144.33-21.2Q146.23-21.2 147.26-20.03 148.28-18.85 148.28-16.65L148.28-16.65 148.28-3.85Q147.63-2.75 146.46-2.13 145.28-1.5 143.83-1.5L143.83-1.5ZM167.28-21.7Q170.18-21.7 172.43-20.3 174.68-18.9 175.93-16.38 177.18-13.85 177.18-10.6L177.18-10.6Q177.18-7.35 175.93-4.83 174.68-2.3 172.43-0.9 170.18 0.5 167.28 0.5L167.28 0.5Q164.38 0.5 162.13-0.9 159.88-2.3 158.63-4.83 157.38-7.35 157.38-10.6L157.38-10.6Q157.38-13.85 158.63-16.38 159.88-18.9 162.13-20.3 164.38-21.7 167.28-21.7L167.28-21.7ZM161.08-10.6Q161.08-5.6 162.73-2.8 164.38 0 167.28 0L167.28 0Q170.18 0 171.83-2.8 173.48-5.6 173.48-10.6L173.48-10.6Q173.48-15.6 171.83-18.4 170.18-21.2 167.28-21.2L167.28-21.2Q164.38-21.2 162.73-18.4 161.08-15.6 161.08-10.6L161.08-10.6Z" opacity="1" transform="matrix(1,0,0,1,0,0)" fill="#000000" class="slogan-text-1" data-fill-palette-color="secondary" id="text-1"></path></svg></g></svg></g></svg></g></svg></g><g transform="matrix(1,0,0,1,132.7744270961521,0)"><svg viewBox="0 0 129.9711458076958 129.97114580769576" height="129.97114580769576" width="129.9711458076958"><g><svg></svg></g><g id="icon-0"><svg viewBox="0 0 129.9711458076958 129.97114580769576" height="129.97114580769576" width="129.9711458076958"><g><path transform="scale(1.29971,1.29971)" d="M30 100c-16.569 0-30-13.431-30-30v-40c0-16.569 13.431-30 30-30h40c16.569 0 30 13.431 30 30v40c0 16.569-13.431 30-30 30z" fill="#000000" fill-rule="nonzero" stroke="none" stroke-width="1" stroke-linecap="butt" stroke-linejoin="miter" stroke-miterlimit="10" stroke-dasharray="" stroke-dashoffset="0" font-family="none" font-weight="none" font-size="none" text-anchor="none" style="mix-blend-mode: normal" data-fill-palette-color="accent"></path></g><g transform="matrix(1,0,0,1,25.994229161539167,33.62611314166551)"><svg viewBox="0 0 77.98268748461746 62.71891952436474" height="62.71891952436474" width="77.98268748461746"><g><svg xmlns="http://www.w3.org/2000/svg" xmlns:xlink="http://www.w3.org/1999/xlink" version="1.1" x="0" y="0" viewBox="0 9.786 100.00034525290005 80.42699999999999" enable-background="new 0 0 100 100" xml:space="preserve" id="dxe-0" width="77.98268748461746" height="62.71891952436474" class="icon-dxe-0" data-fill-palette-color="quaternary"><path d="M49.942 52.994L90.595 51.529C88.068 47.352 87.436 43.698 82.606 43.068 75.377 42.128 68.148 41.185 60.918 40.242L18.843 34.762C20.101 36.792 39.724 53.361 49.942 52.994" fill="#ffffff" data-fill-palette-color="quaternary"></path><path d="M0 9.786C4.391 17.043 26.615 32.858 32.953 33.672 50.283 35.903 67.61 38.132 84.939 40.36 81.546 34.753 80.759 31.01 74.627 29.401L47.91 22.378C31.94 18.182 15.97 13.984 0 9.786" fill="#ffffff" data-fill-palette-color="quaternary"></path><path d="M63.108 66.207L94.349 59.547C92.321 56.201 92.315 54.188 88.522 54.358 82.364 54.631 76.208 54.907 70.051 55.18 58.708 55.686 47.365 56.194 36.023 56.698 37.298 58.064 54.94 67.947 63.108 66.207" fill="#ffffff" data-fill-palette-color="quaternary"></path><path d="M87.682 90.213C93.407 86.494 94.944 82.492 98.201 76.406 101.852 69.582 99.458 68.562 95.38 61.81 94.963 61.122 89.538 62.042 88.927 62.714 88.182 63.532 88.679 68.169 88.633 69.21z" fill="#ffffff" data-fill-palette-color="quaternary"></path><path d="M86.35 63.447C82.555 64.256 77.746 63.638 76.778 67.676L72.658 84.887C81.904 82.678 86.028 71.582 86.35 63.447" fill="#ffffff" data-fill-palette-color="quaternary"></path><path d="M74.666 66.121C65.518 68.074 65.71 70.732 61.787 79.301 68.007 78.711 73.811 71.941 74.666 66.121" fill="#ffffff" data-fill-palette-color="quaternary"></path></svg></g></svg></g></svg></g></svg></g><g></g></svg></g><defs></defs></svg><rect width="395.52" height="235.78833055828562" fill="none" stroke="none" visibility="hidden"></rect></g></svg></g></svg>